<svg width="32" height="32" viewBox="0 0 32 32" fill="none" xmlns="http://www.w3.org/2000/svg">
<path d="M31 31L1 31" stroke="black" stroke-width="2" stroke-linecap="round"/>
<path d="M2.5 13.1569C2.5 12.0306 3.39543 11.1176 4.5 11.1176H17.4706C18.5751 11.1176 19.4706 12.0306 19.4706 13.1569V26.3817C19.4706 27.508 18.5751 28.421 17.4706 28.421H4.5C3.39543 28.421 2.5 27.508 2.5 26.3817V13.1569Z" stroke="#C8C8C8" stroke-width="2"/>
<path d="M17.9687 6.41421C18.7498 5.63317 20.0161 5.63316 20.7971 6.41421L30.0858 15.7029C30.8668 16.4839 30.8668 17.7502 30.0858 18.5313L20.7971 27.8199C20.0161 28.601 18.7498 28.601 17.9687 27.8199L8.68006 18.5313C7.89901 17.7502 7.89901 16.4839 8.68006 15.7029L17.9687 6.41421Z" stroke="black" stroke-width="2"/>
<path d="M17.5675 27.5002L9.56752 19.3434" stroke="#FF3072" stroke-width="2" stroke-linecap="round"/>
</svg>
