<svg width="64" height="64" viewBox="0 0 64 64" fill="none" xmlns="http://www.w3.org/2000/svg">
<path d="M62 62L2 62" stroke="black" stroke-width="4" stroke-linecap="round"/>
<path d="M5 27C5 24.7909 6.79086 23 9 23H34.9411C37.1503 23 38.9411 24.7909 38.9411 27V52.9411C38.9411 55.1503 37.1503 56.9411 34.9411 56.9411H9C6.79086 56.9411 5 55.1503 5 52.9411V27Z" stroke="#C8C8C8" stroke-width="4"/>
<path d="M36.1716 13.8284C37.7337 12.2663 40.2663 12.2663 41.8284 13.8284L60.1716 32.1716C61.7337 33.7337 61.7337 36.2663 60.1716 37.8284L41.8284 56.1716C40.2663 57.7337 37.7337 57.7337 36.1716 56.1716L17.8284 37.8284C16.2663 36.2663 16.2663 33.7337 17.8284 32.1716L36.1716 13.8284Z" stroke="black" stroke-width="4"/>
<path d="M35.135 55.135L19.135 39.135" stroke="#FF3072" stroke-width="4" stroke-linecap="round"/>
</svg>
